<svg xmlns="http://www.w3.org/2000/svg" style="display: none;">
	<symbol id="bootstrap" viewBox="0 0 118 94">
		<title>Bootstrap</title>
		<path fill-rule="evenodd" clip-rule="evenodd" d="M24.509 0c-6.733 0-11.715 5.893-11.492 12.284.214 6.14-.064 14.092-2.066 20.577C8.943 39.365 5.547 43.485 0 44.014v5.972c5.547.529 8.943 4.649 10.951 11.153 2.002 6.485 2.28 14.437 2.066 20.577C12.794 88.106 17.776 94 24.51 94H93.5c6.733 0 11.714-5.893 11.491-12.284-.214-6.14.064-14.092 2.066-20.577 2.009-6.504 5.396-10.624 10.943-11.153v-5.972c-5.547-.529-8.934-4.649-10.943-11.153-2.002-6.484-2.28-14.437-2.066-20.577C105.214 5.894 100.233 0 93.5 0H24.508zM80 57.863C80 66.663 73.436 72 62.543 72H44a2 2 0 01-2-2V24a2 2 0 012-2h18.437c9.083 0 15.044 4.92 15.044 12.474 0 5.302-4.01 10.049-9.119 10.88v.277C75.317 46.394 80 51.21 80 57.863zM60.521 28.34H49.948v14.934h8.905c6.884 0 10.68-2.772 10.68-7.727 0-4.643-3.264-7.207-9.012-7.207zM49.948 49.2v16.458H60.91c7.167 0 10.964-2.876 10.964-8.281 0-5.406-3.903-8.178-11.425-8.178H49.948z"></path>
	</symbol>
	<symbol id="logo" viewBox="0 0 586 586">
		<title>logo</title>
		<path d="M284.49,76.43c-27.72-0.84-55.76,4.18-81.72,14.91c-25.98,10.68-49.83,26.91-69.8,47.2
	c-19.99,20.27-36.09,44.58-47.21,71.15c-11.15,26.56-17.28,55.36-18.15,84.47c-0.8-29.1,3.66-58.52,13.48-86.27
	c9.79-27.74,24.9-53.8,44.56-76.16c19.62-22.37,43.81-41.03,71.01-54.08c27.17-13.1,57.34-20.39,87.83-21.22V76.43z" />
		<path d="M286.69,509.57c27.72,0.84,55.76-4.18,81.72-14.91c25.98-10.68,49.83-26.91,69.8-47.2c19.99-20.27,36.09-44.58,47.21-71.15
	c11.15-26.56,17.28-55.36,18.15-84.47c0.8,29.1-3.66,58.52-13.48,86.27c-9.79,27.74-24.9,53.8-44.56,76.16
	c-19.62,22.37-43.81,41.03-71.01,54.08c-27.17,13.1-57.34,20.39-87.83,21.22V509.57z" />
		<path class="st0" d="M286.69,112.6c3.44,7.56,6.12,15.12,8.58,22.68c2.49,7.56,4.57,15.12,6.55,22.68
	c3.87,15.12,6.73,30.24,9.14,45.36c4.63,30.24,6.6,60.48,6.66,90.73c0.01,30.24-1.97,60.48-6.58,90.73
	c-2.42,15.12-5.27,30.24-9.15,45.36c-1.99,7.56-4.08,15.12-6.58,22.68c-2.46,7.56-5.17,15.12-8.62,22.68
	c-3.46-7.56-6.16-15.12-8.62-22.68c-2.5-7.56-4.59-15.12-6.58-22.68c-3.88-15.12-6.74-30.24-9.15-45.36
	c-4.61-30.24-6.58-60.48-6.57-90.73c0.06-30.24,2.04-60.48,6.66-90.73c2.42-15.12,5.27-30.24,9.14-45.36
	c1.98-7.56,4.06-15.12,6.55-22.68C280.57,127.72,283.25,120.16,286.69,112.6z" />
		<rect x="394.39" y="574.17" class="st0" width="40.56" height="6.3" />
		<rect x="313.28" y="574.17" class="st0" width="40.56" height="6.3" />
		<rect x="232.16" y="574.17" class="st0" width="40.56" height="6.3" />
		<rect x="151.05" y="574.17" class="st0" width="40.56" height="6.3" />
		<rect x="69.94" y="574.17" class="st0" width="40.56" height="6.3" />
		<polygon class="st0" points="29.38,580.46 5.54,580.46 5.54,556.62 11.83,556.62 11.83,574.17 29.38,574.17 " />
		<rect x="5.54" y="475.51" class="st0" width="6.3" height="40.56" />
		<rect x="5.54" y="394.39" class="st0" width="6.3" height="40.56" />
		<rect x="5.54" y="313.28" class="st0" width="6.3" height="40.56" />
		<rect x="5.54" y="232.16" class="st0" width="6.3" height="40.56" />
		<rect x="5.54" y="151.05" class="st0" width="6.3" height="40.56" />
		<rect x="475.51" y="5.54" class="st0" width="40.56" height="6.3" />
		<rect x="394.39" y="5.54" class="st0" width="40.56" height="6.3" />
		<rect x="313.28" y="5.54" class="st0" width="40.56" height="6.3" />
		<rect x="232.16" y="5.54" class="st0" width="40.56" height="6.3" />
		<rect x="151.05" y="5.54" class="st0" width="40.56" height="6.3" />
		<polygon class="st0" points="580.46,29.38 574.17,29.38 574.17,11.83 556.62,11.83 556.62,5.54 580.46,5.54 " />
		<rect x="574.17" y="394.39" class="st0" width="6.3" height="40.56" />
		<rect x="574.17" y="313.28" class="st0" width="6.3" height="40.56" />
		<rect x="574.17" y="232.16" class="st0" width="6.3" height="40.56" />
		<rect x="574.17" y="151.05" class="st0" width="6.3" height="40.56" />
		<rect x="574.17" y="69.94" class="st0" width="6.3" height="40.56" />
		<polygon class="st0" points="120.49,0 19.87,0 0,0 0,19.87 0,120.49 19.87,120.49 19.87,19.87 120.49,19.87 " />
		<polygon class="st0" points="586,465.51 586,566.13 586,586 566.13,586 465.51,586 465.51,566.13 566.13,566.13 566.13,465.51 " />
	</symbol>
	<symbol id="facebook" viewBox="0 0 16 16">
		<path d="M16 8.049c0-4.446-3.582-8.05-8-8.05C3.58 0-.002 3.603-.002 8.05c0 4.017 2.926 7.347 6.75 7.951v-5.625h-2.03V8.05H6.75V6.275c0-2.017 1.195-3.131 3.022-3.131.876 0 1.791.157 1.791.157v1.98h-1.009c-.993 0-1.303.621-1.303 1.258v1.51h2.218l-.354 2.326H9.25V16c3.824-.604 6.75-3.934 6.75-7.951z"/>
	  </symbol>
	  <symbol id="instagram" viewBox="0 0 16 16">
		  <path d="M8 0C5.829 0 5.556.01 4.703.048 3.85.088 3.269.222 2.76.42a3.917 3.917 0 0 0-1.417.923A3.927 3.927 0 0 0 .42 2.76C.222 3.268.087 3.85.048 4.7.01 5.555 0 5.827 0 8.001c0 2.172.01 2.444.048 3.297.04.852.174 1.433.372 1.942.205.526.478.972.923 1.417.444.445.89.719 1.416.923.51.198 1.09.333 1.942.372C5.555 15.99 5.827 16 8 16s2.444-.01 3.298-.048c.851-.04 1.434-.174 1.943-.372a3.916 3.916 0 0 0 1.416-.923c.445-.445.718-.891.923-1.417.197-.509.332-1.09.372-1.942C15.99 10.445 16 10.173 16 8s-.01-2.445-.048-3.299c-.04-.851-.175-1.433-.372-1.941a3.926 3.926 0 0 0-.923-1.417A3.911 3.911 0 0 0 13.24.42c-.51-.198-1.092-.333-1.943-.372C10.443.01 10.172 0 7.998 0h.003zm-.717 1.442h.718c2.136 0 2.389.007 3.232.046.78.035 1.204.166 1.486.275.373.145.64.319.92.599.28.28.453.546.598.92.11.281.24.705.275 1.485.039.843.047 1.096.047 3.231s-.008 2.389-.047 3.232c-.035.78-.166 1.203-.275 1.485a2.47 2.47 0 0 1-.599.919c-.28.28-.546.453-.92.598-.28.11-.704.24-1.485.276-.843.038-1.096.047-3.232.047s-2.39-.009-3.233-.047c-.78-.036-1.203-.166-1.485-.276a2.478 2.478 0 0 1-.92-.598 2.48 2.48 0 0 1-.6-.92c-.109-.281-.24-.705-.275-1.485-.038-.843-.046-1.096-.046-3.233 0-2.136.008-2.388.046-3.231.036-.78.166-1.204.276-1.486.145-.373.319-.64.599-.92.28-.28.546-.453.92-.598.282-.11.705-.24 1.485-.276.738-.034 1.024-.044 2.515-.045v.002zm4.988 1.328a.96.96 0 1 0 0 1.92.96.96 0 0 0 0-1.92zm-4.27 1.122a4.109 4.109 0 1 0 0 8.217 4.109 4.109 0 0 0 0-8.217zm0 1.441a2.667 2.667 0 1 1 0 5.334 2.667 2.667 0 0 1 0-5.334z"/>
	  </symbol>
	  <symbol id="twitter" viewBox="0 0 16 16">
		<path d="M5.026 15c6.038 0 9.341-5.003 9.341-9.334 0-.14 0-.282-.006-.422A6.685 6.685 0 0 0 16 3.542a6.658 6.658 0 0 1-1.889.518 3.301 3.301 0 0 0 1.447-1.817 6.533 6.533 0 0 1-2.087.793A3.286 3.286 0 0 0 7.875 6.03a9.325 9.325 0 0 1-6.767-3.429 3.289 3.289 0 0 0 1.018 4.382A3.323 3.323 0 0 1 .64 6.575v.045a3.288 3.288 0 0 0 2.632 3.218 3.203 3.203 0 0 1-.865.115 3.23 3.23 0 0 1-.614-.057 3.283 3.283 0 0 0 3.067 2.277A6.588 6.588 0 0 1 .78 13.58a6.32 6.32 0 0 1-.78-.045A9.344 9.344 0 0 0 5.026 15z"/>
	  </symbol>
	  <symbol id="github" viewBox="0 0 16 16">
		<path d="M8,0A8.1,8.1,0,0,0,0,8.2,8.19,8.19,0,0,0,5.47,16c.4.07.55-.18.55-.4s0-.71,0-1.39c-2.23.49-2.7-1.1-2.7-1.1a2.12,2.12,0,0,0-.89-1.2c-.73-.51.06-.5.06-.5a1.68,1.68,0,0,1,1.22.84A1.68,1.68,0,0,0,6,12.92a1.72,1.72,0,0,1,.51-1.09c-1.78-.21-3.65-.91-3.65-4.06a3.2,3.2,0,0,1,.83-2.2A3,3,0,0,1,3.8,3.4s.67-.22,2.2.84a7.54,7.54,0,0,1,4,0c1.53-1.06,2.2-.84,2.2-.84a3,3,0,0,1,.08,2.17,3.2,3.2,0,0,1,.83,2.2c0,3.15-1.88,3.85-3.66,4.05A2,2,0,0,1,10,13.34c0,1.1,0,2,0,2.25s.15.48.56.39A8.18,8.18,0,0,0,16,8.2,8.1,8.1,0,0,0,8,0Z" transform="translate(0)"/>
	  </symbol>
	  <symbol id="linkedin" viewBox="0 0 16 16">
		<rect width="16" height="16" />
		<path class="cls-2" d="M3.77,2.43A1.34,1.34,0,1,1,2.42,3.77,1.34,1.34,0,0,1,3.77,2.43Zm0,0" />
		<path class="cls-2" d="M4.54,13.57H3a.38.38,0,0,1-.37-.37V6.5A.38.38,0,0,1,3,6.13H4.54a.37.37,0,0,1,.37.37v6.7a.37.37,0,0,1-.37.37Zm0,0" />
		<path class="cls-2" d="M13.58,8.48A2.54,2.54,0,0,0,11,5.94h-.4a2.28,2.28,0,0,0-1.86,1l-.12.2h0V6.29a.16.16,0,0,0-.16-.16H6.53a.16.16,0,0,0-.16.16v7.13a.16.16,0,0,0,.16.15h2a.15.15,0,0,0,.15-.15V9.3a1.3,1.3,0,1,1,2.59,0v4.14a.15.15,0,0,0,.15.15h2a.15.15,0,0,0,.15-.15V8.48Zm0,0" />
	  </symbol>
	  <symbol id="gmail" viewBox="0 0 22.05 16">
		<path  d="M.41,15.56l0,0Z"/><path  d="M.55,15.68l0,0Z"/><path  d="M.65,15.76l0,0Z"/><path  d="M20.61,16H19.54V4.28l-6,4.39-2.36,1.72-.37-.28L8.75,8.62,2.51,4.06V16h18.1Z"/><path  d="M.76,15.83l0,0Z"/><path  d="M1.18,16h0Z"/><path  d="M1.31,16h0Z"/><path  d="M.91,15.9l0,0Z"/><path  d="M1.05,15.94h0Z"/><path  d="M0,14.55V1.44A1.43,1.43,0,0,1,.09.94,1.44,1.44,0,0,0,0,1.45v13.1H0Z"/><path  d="M0,14.85v0Z"/><path  d="M0,14.72v0Z"/><path  d="M21.61,15.6l0,0Z"/><path  d="M.35,15.5l0,0Z"/><polygon  points="11.1 6.89 19.54 0.73 19.61 0.68 20.54 0 1.66 0 2.51 0.62 11.1 6.89"/><path  d="M.25,15.37l0,0Z"/><path  d="M.19,15.26l0,0Z"/><path  d="M.13,15.15l0-.06Z"/><path  d="M.08,15a.14.14,0,0,0,0-.06A.14.14,0,0,1,.08,15Z"/><path  d="M22,15A.14.14,0,0,1,22,15,.14.14,0,0,0,22,15Z"/><path  d="M22.05,14.68v0Z"/><path  d="M22,14.82v0Z"/><path  d="M22,15.09l0,.06Z"/><path  d="M21.89.78l0,0Z"/><polygon  points="22.05 1.44 22.05 1.45 22.05 2.44 22.05 14.55 22.05 14.56 22.05 14.55 22.05 1.45 22.05 1.44"/><path  d="M22.05,1.31v0Z"/><path  d="M22,1.18v0Z"/><path  d="M22,1h0Z"/><path  d="M21.94.9v0Z"/><path  d="M21.18,15.88l0,0Z"/><path  d="M21.06,15.93h0Z"/><path  d="M21.32,15.81l0,0Z"/><path  d="M20.79,16h0Z"/><path  d="M20.93,16h0Z"/><path  d="M21.83,15.32l0,0Z"/><path  d="M21.9,15.21l0,0Z"/><path  d="M21.73,15.47l0,0Z"/><path  d="M21.55,15.65l0,0Z"/><path  d="M21.44,15.73l0,0Z"/>
	  </symbol>
</svg>